# xmcd
#
# Track frame offsets: 
#        150
#        16930
#        30187
#        45675
#        62857
#        77620
#        90155
#        104160
#        120590
#        134792
#
# Disc length: 1994 seconds
#
# Revision: 0
# Processed by: cddbd v1.5.1PL0 Copyright (c) Steve Scherf et al.
# Submitted via: ExactAudioCopy v0.90b4
#
DISCID=7a07c80a
DTITLE=Stephanie Thomson - Almost Blue
DYEAR=1900
DGENRE=Country
TTITLE0=Walk That Talk
TTITLE1=Stop The Clock
TTITLE2=Love Love Love
TTITLE3=Almost Blue
TTITLE4=Glad For You
TTITLE5=Phyllis and Don
TTITLE6=Rockit Scientist
TTITLE7=You're So Good
TTITLE8=Down To The Letter
TTITLE9=Talk Of The Town
EXTD=
EXTT0=
EXTT1=
EXTT2=
EXTT3=
EXTT4=
EXTT5=
EXTT6=
EXTT7=
EXTT8=
EXTT9=
PLAYORDER=
